<svg width="24" height="24" viewBox="0 0 24 24" fill="none" xmlns="http://www.w3.org/2000/svg">
<g clip-path="url(#clip0_3_204)">
<path d="M1.1049 12.553C0.273896 14.215 0.413896 16.796 1.4229 18.429C2.0499 19.442 2.9649 20 3.9999 20C4.2389 20 4.7719 19.992 5.6439 19.023L2.5739 10.577C2.0429 11.098 1.5069 11.75 1.1049 12.553Z" fill="#111216"/>
<path d="M22.895 12.553C22.494 11.75 21.957 11.098 21.426 10.578L18.356 19.024C19.229 19.992 19.761 20 20 20C21.035 20 21.949 19.442 22.576 18.429C23.586 16.796 23.725 14.215 22.895 12.553Z" fill="#111216"/>
<path d="M4.29288 8.293C4.03588 8.55 3.93788 8.925 4.03888 9.275L6.03888 16.275C6.11288 16.537 6.29188 16.757 6.53288 16.885C6.67888 16.961 6.83888 17 6.99988 17C7.24188 17 7.57188 16.864 7.81188 16.783L6.30788 7C5.67388 7.217 4.98088 7.606 4.29288 8.293Z" fill="#111216"/>
<path d="M19.707 8.293C19.02 7.606 18.326 7.217 17.692 7L16.187 16.783C16.428 16.863 16.758 17 17 17C17.161 17 17.321 16.961 17.467 16.885C17.708 16.757 17.887 16.537 17.961 16.275L19.961 9.275C20.062 8.925 19.964 8.55 19.707 8.293Z" fill="#111216"/>
<path d="M12 5C9.65297 5 8.42597 6.161 8.29297 6.293C8.07797 6.508 7.97297 6.809 8.00597 7.11L9.00597 16.11C9.06197 16.617 9.48997 17 9.99997 17H14C14.51 17 14.938 16.617 14.994 16.11L15.994 7.11C16.027 6.809 15.922 6.508 15.707 6.293C15.574 6.161 14.347 5 12 5Z" fill="#111216"/>
</g>
<defs>
<clipPath id="clip0_3_204">
<rect width="24" height="24" fill="white"/>
</clipPath>
</defs>
</svg>
